<svg xmlns="http://www.w3.org/2000/svg" version="1.1" xmlns:xlink="http://www.w3.org/1999/xlink" xmlns:svgjs="http://svgjs.com/svgjs" width="1440" height="560" preserveAspectRatio="none" viewBox="0 0 1440 560"><g mask="url(&quot;#SvgjsMask1876&quot;)" fill="none"><rect width="1440" height="560" x="0" y="0" fill="url(#SvgjsLinearGradient1877)"></rect><path d="M-67.54 369.49L-67.54 369.49" stroke="rgba(251, 251, 251, 1)" stroke-width="1.5"></path><path d="M-67.54 369.49L-94.61 492.83" stroke="rgba(251, 251, 251, 1)" stroke-width="1.5"></path><path d="M-67.54 369.49L111.08 353.06" stroke="rgba(251, 251, 251, 1)" stroke-width="1.5"></path><path d="M-67.54 369.49L41.85 551.3" stroke="rgba(251, 251, 251, 1)" stroke-width="1.5"></path><path d="M-67.54 369.49L198.79 381.97" stroke="rgba(251, 251, 251, 1)" stroke-width="1.5"></path><path d="M-94.61 492.83L-94.61 492.83" stroke="rgba(251, 251, 251, 1)" stroke-width="1.5"></path><path d="M-94.61 492.83L41.85 551.3" stroke="rgba(251, 251, 251, 1)" stroke-width="1.5"></path><path d="M-63.19 673.08L-63.19 673.08" stroke="rgba(251, 251, 251, 1)" stroke-width="1.5"></path><path d="M-63.19 673.08L51.5 699.3" stroke="rgba(251, 251, 251, 1)" stroke-width="1.5"></path><path d="M-63.19 673.08L41.85 551.3" stroke="rgba(251, 251, 251, 1)" stroke-width="1.5"></path><path d="M-63.19 673.08L-94.61 492.83" stroke="rgba(251, 251, 251, 1)" stroke-width="1.5"></path><path d="M-63.19 673.08L-67.54 369.49" stroke="rgba(251, 251, 251, 1)" stroke-width="1.5"></path><path d="M111.08 353.06L111.08 353.06" stroke="rgba(251, 251, 251, 1)" stroke-width="1.5"></path><path d="M111.08 353.06L198.79 381.97" stroke="rgba(251, 251, 251, 1)" stroke-width="1.5"></path><path d="M41.85 551.3L41.85 551.3" stroke="rgba(251, 251, 251, 1)" stroke-width="1.5"></path><path d="M41.85 551.3L51.5 699.3" stroke="rgba(251, 251, 251, 1)" stroke-width="1.5"></path><path d="M51.5 699.3L51.5 699.3" stroke="rgba(251, 251, 251, 1)" stroke-width="1.5"></path><path d="M51.5 699.3L242.2 699.54" stroke="rgba(251, 251, 251, 1)" stroke-width="1.5"></path><path d="M51.5 699.3L-94.61 492.83" stroke="rgba(251, 251, 251, 1)" stroke-width="1.5"></path><path d="M198.79 381.97L198.79 381.97" stroke="rgba(251, 251, 251, 1)" stroke-width="1.5"></path><path d="M198.79 381.97L385.15 401.42" stroke="rgba(251, 251, 251, 1)" stroke-width="1.5"></path><path d="M198.79 381.97L365.22 532.01" stroke="rgba(251, 251, 251, 1)" stroke-width="1.5"></path><path d="M242.2 699.54L242.2 699.54" stroke="rgba(251, 251, 251, 1)" stroke-width="1.5"></path><path d="M242.2 699.54L339.86 654.07" stroke="rgba(251, 251, 251, 1)" stroke-width="1.5"></path><path d="M242.2 699.54L365.22 532.01" stroke="rgba(251, 251, 251, 1)" stroke-width="1.5"></path><path d="M385.15 401.42L385.15 401.42" stroke="rgba(251, 251, 251, 1)" stroke-width="1.5"></path><path d="M385.15 401.42L365.22 532.01" stroke="rgba(251, 251, 251, 1)" stroke-width="1.5"></path><path d="M385.15 401.42L516.26 339.7" stroke="rgba(251, 251, 251, 1)" stroke-width="1.5"></path><path d="M385.15 401.42L560.76 535.77" stroke="rgba(251, 251, 251, 1)" stroke-width="1.5"></path><path d="M385.15 401.42L339.86 654.07" stroke="rgba(251, 251, 251, 1)" stroke-width="1.5"></path><path d="M385.15 401.42L111.08 353.06" stroke="rgba(251, 251, 251, 1)" stroke-width="1.5"></path><path d="M365.22 532.01L365.22 532.01" stroke="rgba(251, 251, 251, 1)" stroke-width="1.5"></path><path d="M365.22 532.01L339.86 654.07" stroke="rgba(251, 251, 251, 1)" stroke-width="1.5"></path><path d="M339.86 654.07L339.86 654.07" stroke="rgba(251, 251, 251, 1)" stroke-width="1.5"></path><path d="M516.26 339.7L516.26 339.7" stroke="rgba(251, 251, 251, 1)" stroke-width="1.5"></path><path d="M516.26 339.7L690.21 357.37" stroke="rgba(251, 251, 251, 1)" stroke-width="1.5"></path><path d="M516.26 339.7L560.76 535.77" stroke="rgba(251, 251, 251, 1)" stroke-width="1.5"></path><path d="M516.26 339.7L693.5 206.92" stroke="rgba(251, 251, 251, 1)" stroke-width="1.5"></path><path d="M560.76 535.77L560.76 535.77" stroke="rgba(251, 251, 251, 1)" stroke-width="1.5"></path><path d="M560.76 535.77L661.29 557.63" stroke="rgba(251, 251, 251, 1)" stroke-width="1.5"></path><path d="M560.76 535.77L530.66 639.83" stroke="rgba(251, 251, 251, 1)" stroke-width="1.5"></path><path d="M560.76 535.77L696.06 651.63" stroke="rgba(251, 251, 251, 1)" stroke-width="1.5"></path><path d="M560.76 535.77L365.22 532.01" stroke="rgba(251, 251, 251, 1)" stroke-width="1.5"></path><path d="M530.66 639.83L530.66 639.83" stroke="rgba(251, 251, 251, 1)" stroke-width="1.5"></path><path d="M693.5 206.92L693.5 206.92" stroke="rgba(251, 251, 251, 1)" stroke-width="1.5"></path><path d="M693.5 206.92L814.89 220.63" stroke="rgba(251, 251, 251, 1)" stroke-width="1.5"></path><path d="M693.5 206.92L690.21 357.37" stroke="rgba(251, 251, 251, 1)" stroke-width="1.5"></path><path d="M690.21 357.37L690.21 357.37" stroke="rgba(251, 251, 251, 1)" stroke-width="1.5"></path><path d="M690.21 357.37L814.89 220.63" stroke="rgba(251, 251, 251, 1)" stroke-width="1.5"></path><path d="M661.29 557.63L661.29 557.63" stroke="rgba(251, 251, 251, 1)" stroke-width="1.5"></path><path d="M661.29 557.63L696.06 651.63" stroke="rgba(251, 251, 251, 1)" stroke-width="1.5"></path><path d="M661.29 557.63L530.66 639.83" stroke="rgba(251, 251, 251, 1)" stroke-width="1.5"></path><path d="M661.29 557.63L828.32 517.92" stroke="rgba(251, 251, 251, 1)" stroke-width="1.5"></path><path d="M661.29 557.63L690.21 357.37" stroke="rgba(251, 251, 251, 1)" stroke-width="1.5"></path><path d="M661.29 557.63L827.09 705.29" stroke="rgba(251, 251, 251, 1)" stroke-width="1.5"></path><path d="M696.06 651.63L696.06 651.63" stroke="rgba(251, 251, 251, 1)" stroke-width="1.5"></path><path d="M696.06 651.63L827.09 705.29" stroke="rgba(251, 251, 251, 1)" stroke-width="1.5"></path><path d="M696.06 651.63L530.66 639.83" stroke="rgba(251, 251, 251, 1)" stroke-width="1.5"></path><path d="M814.89 220.63L814.89 220.63" stroke="rgba(251, 251, 251, 1)" stroke-width="1.5"></path><path d="M814.89 220.63L998.99 209.86" stroke="rgba(251, 251, 251, 1)" stroke-width="1.5"></path><path d="M814.89 220.63L984.66 373.35" stroke="rgba(251, 251, 251, 1)" stroke-width="1.5"></path><path d="M828.32 517.92L828.32 517.92" stroke="rgba(251, 251, 251, 1)" stroke-width="1.5"></path><path d="M828.32 517.92L955.2 492.7" stroke="rgba(251, 251, 251, 1)" stroke-width="1.5"></path><path d="M828.32 517.92L827.09 705.29" stroke="rgba(251, 251, 251, 1)" stroke-width="1.5"></path><path d="M828.32 517.92L696.06 651.63" stroke="rgba(251, 251, 251, 1)" stroke-width="1.5"></path><path d="M827.09 705.29L827.09 705.29" stroke="rgba(251, 251, 251, 1)" stroke-width="1.5"></path><path d="M827.09 705.29L955.2 492.7" stroke="rgba(251, 251, 251, 1)" stroke-width="1.5"></path><path d="M971.08 -66.33L971.08 -66.33" stroke="rgba(251, 251, 251, 1)" stroke-width="1.5"></path><path d="M971.08 -66.33L995.84 44.23" stroke="rgba(251, 251, 251, 1)" stroke-width="1.5"></path><path d="M971.08 -66.33L1157.09 -103.14" stroke="rgba(251, 251, 251, 1)" stroke-width="1.5"></path><path d="M971.08 -66.33L1093.41 91.75" stroke="rgba(251, 251, 251, 1)" stroke-width="1.5"></path><path d="M995.84 44.23L995.84 44.23" stroke="rgba(251, 251, 251, 1)" stroke-width="1.5"></path><path d="M995.84 44.23L1093.41 91.75" stroke="rgba(251, 251, 251, 1)" stroke-width="1.5"></path><path d="M995.84 44.23L998.99 209.86" stroke="rgba(251, 251, 251, 1)" stroke-width="1.5"></path><path d="M995.84 44.23L1130.41 214.65" stroke="rgba(251, 251, 251, 1)" stroke-width="1.5"></path><path d="M995.84 44.23L1157.09 -103.14" stroke="rgba(251, 251, 251, 1)" stroke-width="1.5"></path><path d="M998.99 209.86L998.99 209.86" stroke="rgba(251, 251, 251, 1)" stroke-width="1.5"></path><path d="M998.99 209.86L1130.41 214.65" stroke="rgba(251, 251, 251, 1)" stroke-width="1.5"></path><path d="M998.99 209.86L1093.41 91.75" stroke="rgba(251, 251, 251, 1)" stroke-width="1.5"></path><path d="M998.99 209.86L984.66 373.35" stroke="rgba(251, 251, 251, 1)" stroke-width="1.5"></path><path d="M984.66 373.35L984.66 373.35" stroke="rgba(251, 251, 251, 1)" stroke-width="1.5"></path><path d="M984.66 373.35L955.2 492.7" stroke="rgba(251, 251, 251, 1)" stroke-width="1.5"></path><path d="M984.66 373.35L1154.99 367.21" stroke="rgba(251, 251, 251, 1)" stroke-width="1.5"></path><path d="M984.66 373.35L828.32 517.92" stroke="rgba(251, 251, 251, 1)" stroke-width="1.5"></path><path d="M984.66 373.35L1130.41 214.65" stroke="rgba(251, 251, 251, 1)" stroke-width="1.5"></path><path d="M955.2 492.7L955.2 492.7" stroke="rgba(251, 251, 251, 1)" stroke-width="1.5"></path><path d="M955.2 492.7L1144.85 518.68" stroke="rgba(251, 251, 251, 1)" stroke-width="1.5"></path><path d="M1157.09 -103.14L1157.09 -103.14" stroke="rgba(251, 251, 251, 1)" stroke-width="1.5"></path><path d="M1157.09 -103.14L1278.07 -83.25" stroke="rgba(251, 251, 251, 1)" stroke-width="1.5"></path><path d="M1093.41 91.75L1093.41 91.75" stroke="rgba(251, 251, 251, 1)" stroke-width="1.5"></path><path d="M1093.41 91.75L1130.41 214.65" stroke="rgba(251, 251, 251, 1)" stroke-width="1.5"></path><path d="M1130.41 214.65L1130.41 214.65" stroke="rgba(251, 251, 251, 1)" stroke-width="1.5"></path><path d="M1130.41 214.65L1258.49 228.77" stroke="rgba(251, 251, 251, 1)" stroke-width="1.5"></path><path d="M1130.41 214.65L1154.99 367.21" stroke="rgba(251, 251, 251, 1)" stroke-width="1.5"></path><path d="M1130.41 214.65L1251.59 80.85" stroke="rgba(251, 251, 251, 1)" stroke-width="1.5"></path><path d="M1130.41 214.65L1274.52 372.07" stroke="rgba(251, 251, 251, 1)" stroke-width="1.5"></path><path d="M1154.99 367.21L1154.99 367.21" stroke="rgba(251, 251, 251, 1)" stroke-width="1.5"></path><path d="M1154.99 367.21L1274.52 372.07" stroke="rgba(251, 251, 251, 1)" stroke-width="1.5"></path><path d="M1154.99 367.21L1144.85 518.68" stroke="rgba(251, 251, 251, 1)" stroke-width="1.5"></path><path d="M1154.99 367.21L1258.49 228.77" stroke="rgba(251, 251, 251, 1)" stroke-width="1.5"></path><path d="M1154.99 367.21L1261.57 503.94" stroke="rgba(251, 251, 251, 1)" stroke-width="1.5"></path><path d="M1144.85 518.68L1144.85 518.68" stroke="rgba(251, 251, 251, 1)" stroke-width="1.5"></path><path d="M1144.85 518.68L1261.57 503.94" stroke="rgba(251, 251, 251, 1)" stroke-width="1.5"></path><path d="M1144.85 518.68L1244.85 649.33" stroke="rgba(251, 251, 251, 1)" stroke-width="1.5"></path><path d="M1142.35 684.46L1142.35 684.46" stroke="rgba(251, 251, 251, 1)" stroke-width="1.5"></path><path d="M1142.35 684.46L1244.85 649.33" stroke="rgba(251, 251, 251, 1)" stroke-width="1.5"></path><path d="M1142.35 684.46L1144.85 518.68" stroke="rgba(251, 251, 251, 1)" stroke-width="1.5"></path><path d="M1278.07 -83.25L1278.07 -83.25" stroke="rgba(251, 251, 251, 1)" stroke-width="1.5"></path><path d="M1278.07 -83.25L1414.06 -38.85" stroke="rgba(251, 251, 251, 1)" stroke-width="1.5"></path><path d="M1278.07 -83.25L1251.59 80.85" stroke="rgba(251, 251, 251, 1)" stroke-width="1.5"></path><path d="M1278.07 -83.25L1433.69 56.03" stroke="rgba(251, 251, 251, 1)" stroke-width="1.5"></path><path d="M1278.07 -83.25L1093.41 91.75" stroke="rgba(251, 251, 251, 1)" stroke-width="1.5"></path><path d="M1278.07 -83.25L1562.5 -65.98" stroke="rgba(251, 251, 251, 1)" stroke-width="1.5"></path><path d="M1251.59 80.85L1251.59 80.85" stroke="rgba(251, 251, 251, 1)" stroke-width="1.5"></path><path d="M1251.59 80.85L1258.49 228.77" stroke="rgba(251, 251, 251, 1)" stroke-width="1.5"></path><path d="M1251.59 80.85L1093.41 91.75" stroke="rgba(251, 251, 251, 1)" stroke-width="1.5"></path><path d="M1258.49 228.77L1258.49 228.77" stroke="rgba(251, 251, 251, 1)" stroke-width="1.5"></path><path d="M1258.49 228.77L1274.52 372.07" stroke="rgba(251, 251, 251, 1)" stroke-width="1.5"></path><path d="M1274.52 372.07L1274.52 372.07" stroke="rgba(251, 251, 251, 1)" stroke-width="1.5"></path><path d="M1274.52 372.07L1261.57 503.94" stroke="rgba(251, 251, 251, 1)" stroke-width="1.5"></path><path d="M1261.57 503.94L1261.57 503.94" stroke="rgba(251, 251, 251, 1)" stroke-width="1.5"></path><path d="M1261.57 503.94L1392.66 555.19" stroke="rgba(251, 251, 251, 1)" stroke-width="1.5"></path><path d="M1261.57 503.94L1244.85 649.33" stroke="rgba(251, 251, 251, 1)" stroke-width="1.5"></path><path d="M1244.85 649.33L1244.85 649.33" stroke="rgba(251, 251, 251, 1)" stroke-width="1.5"></path><path d="M1244.85 649.33L1413.8 679" stroke="rgba(251, 251, 251, 1)" stroke-width="1.5"></path><path d="M1414.06 -38.85L1414.06 -38.85" stroke="rgba(251, 251, 251, 1)" stroke-width="1.5"></path><path d="M1414.06 -38.85L1433.69 56.03" stroke="rgba(251, 251, 251, 1)" stroke-width="1.5"></path><path d="M1414.06 -38.85L1562.5 -65.98" stroke="rgba(251, 251, 251, 1)" stroke-width="1.5"></path><path d="M1414.06 -38.85L1573.78 43.73" stroke="rgba(251, 251, 251, 1)" stroke-width="1.5"></path><path d="M1433.69 56.03L1433.69 56.03" stroke="rgba(251, 251, 251, 1)" stroke-width="1.5"></path><path d="M1433.69 56.03L1429.45 191.86" stroke="rgba(251, 251, 251, 1)" stroke-width="1.5"></path><path d="M1433.69 56.03L1573.78 43.73" stroke="rgba(251, 251, 251, 1)" stroke-width="1.5"></path><path d="M1433.69 56.03L1562.5 -65.98" stroke="rgba(251, 251, 251, 1)" stroke-width="1.5"></path><path d="M1433.69 56.03L1251.59 80.85" stroke="rgba(251, 251, 251, 1)" stroke-width="1.5"></path><path d="M1429.45 191.86L1429.45 191.86" stroke="rgba(251, 251, 251, 1)" stroke-width="1.5"></path><path d="M1429.45 191.86L1572.19 237.47" stroke="rgba(251, 251, 251, 1)" stroke-width="1.5"></path><path d="M1428.77 375.11L1428.77 375.11" stroke="rgba(251, 251, 251, 1)" stroke-width="1.5"></path><path d="M1428.77 375.11L1274.52 372.07" stroke="rgba(251, 251, 251, 1)" stroke-width="1.5"></path><path d="M1428.77 375.11L1553.88 487.68" stroke="rgba(251, 251, 251, 1)" stroke-width="1.5"></path><path d="M1428.77 375.11L1429.45 191.86" stroke="rgba(251, 251, 251, 1)" stroke-width="1.5"></path><path d="M1428.77 375.11L1392.66 555.19" stroke="rgba(251, 251, 251, 1)" stroke-width="1.5"></path><path d="M1392.66 555.19L1392.66 555.19" stroke="rgba(251, 251, 251, 1)" stroke-width="1.5"></path><path d="M1392.66 555.19L1413.8 679" stroke="rgba(251, 251, 251, 1)" stroke-width="1.5"></path><path d="M1392.66 555.19L1553.88 487.68" stroke="rgba(251, 251, 251, 1)" stroke-width="1.5"></path><path d="M1392.66 555.19L1244.85 649.33" stroke="rgba(251, 251, 251, 1)" stroke-width="1.5"></path><path d="M1413.8 679L1413.8 679" stroke="rgba(251, 251, 251, 1)" stroke-width="1.5"></path><path d="M1413.8 679L1548.75 664.5" stroke="rgba(251, 251, 251, 1)" stroke-width="1.5"></path><path d="M1413.8 679L1261.57 503.94" stroke="rgba(251, 251, 251, 1)" stroke-width="1.5"></path><path d="M1413.8 679L1553.88 487.68" stroke="rgba(251, 251, 251, 1)" stroke-width="1.5"></path><path d="M1413.8 679L1142.35 684.46" stroke="rgba(251, 251, 251, 1)" stroke-width="1.5"></path><path d="M1562.5 -65.98L1562.5 -65.98" stroke="rgba(251, 251, 251, 1)" stroke-width="1.5"></path><path d="M1562.5 -65.98L1573.78 43.73" stroke="rgba(251, 251, 251, 1)" stroke-width="1.5"></path><path d="M1573.78 43.73L1573.78 43.73" stroke="rgba(251, 251, 251, 1)" stroke-width="1.5"></path><path d="M1573.78 43.73L1572.19 237.47" stroke="rgba(251, 251, 251, 1)" stroke-width="1.5"></path><path d="M1573.78 43.73L1429.45 191.86" stroke="rgba(251, 251, 251, 1)" stroke-width="1.5"></path><path d="M1573.78 43.73L1278.07 -83.25" stroke="rgba(251, 251, 251, 1)" stroke-width="1.5"></path><path d="M1572.19 237.47L1572.19 237.47" stroke="rgba(251, 251, 251, 1)" stroke-width="1.5"></path><path d="M1572.19 237.47L1428.77 375.11" stroke="rgba(251, 251, 251, 1)" stroke-width="1.5"></path><path d="M1572.19 237.47L1433.69 56.03" stroke="rgba(251, 251, 251, 1)" stroke-width="1.5"></path><path d="M1553.88 487.68L1553.88 487.68" stroke="rgba(251, 251, 251, 1)" stroke-width="1.5"></path><path d="M1548.75 664.5L1548.75 664.5" stroke="rgba(251, 251, 251, 1)" stroke-width="1.5"></path><path d="M1548.75 664.5L1553.88 487.68" stroke="rgba(251, 251, 251, 1)" stroke-width="1.5"></path><path d="M1548.75 664.5L1392.66 555.19" stroke="rgba(251, 251, 251, 1)" stroke-width="1.5"></path><circle r="5" cx="-67.54" cy="369.49" fill="rgba(251, 251, 251, 1)"></circle><circle r="5" cx="-94.61" cy="492.83" fill="rgba(251, 251, 251, 1)"></circle><circle r="5" cx="-63.19" cy="673.08" fill="rgba(251, 251, 251, 1)"></circle><circle r="5" cx="111.08" cy="353.06" fill="rgba(251, 251, 251, 1)"></circle><circle r="5" cx="41.85" cy="551.3" fill="rgba(251, 251, 251, 1)"></circle><circle r="5" cx="51.5" cy="699.3" fill="rgba(251, 251, 251, 1)"></circle><circle r="5" cx="198.79" cy="381.97" fill="rgba(251, 251, 251, 1)"></circle><circle r="5" cx="242.2" cy="699.54" fill="rgba(251, 251, 251, 1)"></circle><circle r="5" cx="385.15" cy="401.42" fill="rgba(251, 251, 251, 1)"></circle><circle r="5" cx="365.22" cy="532.01" fill="rgba(251, 251, 251, 1)"></circle><circle r="5" cx="339.86" cy="654.07" fill="rgba(251, 251, 251, 1)"></circle><circle r="5" cx="516.26" cy="339.7" fill="rgba(251, 251, 251, 1)"></circle><circle r="5" cx="560.76" cy="535.77" fill="rgba(251, 251, 251, 1)"></circle><circle r="5" cx="530.66" cy="639.83" fill="rgba(251, 251, 251, 1)"></circle><circle r="5" cx="693.5" cy="206.92" fill="rgba(251, 251, 251, 1)"></circle><circle r="5" cx="690.21" cy="357.37" fill="rgba(251, 251, 251, 1)"></circle><circle r="5" cx="661.29" cy="557.63" fill="rgba(251, 251, 251, 1)"></circle><circle r="5" cx="696.06" cy="651.63" fill="rgba(251, 251, 251, 1)"></circle><circle r="5" cx="814.89" cy="220.63" fill="rgba(251, 251, 251, 1)"></circle><circle r="5" cx="828.32" cy="517.92" fill="rgba(251, 251, 251, 1)"></circle><circle r="5" cx="827.09" cy="705.29" fill="rgba(251, 251, 251, 1)"></circle><circle r="5" cx="971.08" cy="-66.33" fill="rgba(251, 251, 251, 1)"></circle><circle r="5" cx="995.84" cy="44.23" fill="rgba(251, 251, 251, 1)"></circle><circle r="5" cx="998.99" cy="209.86" fill="rgba(251, 251, 251, 1)"></circle><circle r="5" cx="984.66" cy="373.35" fill="rgba(251, 251, 251, 1)"></circle><circle r="5" cx="955.2" cy="492.7" fill="rgba(251, 251, 251, 1)"></circle><circle r="5" cx="1157.09" cy="-103.14" fill="rgba(251, 251, 251, 1)"></circle><circle r="5" cx="1093.41" cy="91.75" fill="rgba(251, 251, 251, 1)"></circle><circle r="5" cx="1130.41" cy="214.65" fill="rgba(251, 251, 251, 1)"></circle><circle r="5" cx="1154.99" cy="367.21" fill="rgba(251, 251, 251, 1)"></circle><circle r="5" cx="1144.85" cy="518.68" fill="rgba(251, 251, 251, 1)"></circle><circle r="5" cx="1142.35" cy="684.46" fill="rgba(251, 251, 251, 1)"></circle><circle r="5" cx="1278.07" cy="-83.25" fill="rgba(251, 251, 251, 1)"></circle><circle r="5" cx="1251.59" cy="80.85" fill="rgba(251, 251, 251, 1)"></circle><circle r="5" cx="1258.49" cy="228.77" fill="rgba(251, 251, 251, 1)"></circle><circle r="5" cx="1274.52" cy="372.07" fill="rgba(251, 251, 251, 1)"></circle><circle r="5" cx="1261.57" cy="503.94" fill="rgba(251, 251, 251, 1)"></circle><circle r="5" cx="1244.85" cy="649.33" fill="rgba(251, 251, 251, 1)"></circle><circle r="5" cx="1414.06" cy="-38.85" fill="rgba(251, 251, 251, 1)"></circle><circle r="5" cx="1433.69" cy="56.03" fill="rgba(251, 251, 251, 1)"></circle><circle r="5" cx="1429.45" cy="191.86" fill="rgba(251, 251, 251, 1)"></circle><circle r="5" cx="1428.77" cy="375.11" fill="rgba(251, 251, 251, 1)"></circle><circle r="5" cx="1392.66" cy="555.19" fill="rgba(251, 251, 251, 1)"></circle><circle r="5" cx="1413.8" cy="679" fill="rgba(251, 251, 251, 1)"></circle><circle r="5" cx="1562.5" cy="-65.98" fill="rgba(251, 251, 251, 1)"></circle><circle r="5" cx="1573.78" cy="43.73" fill="rgba(251, 251, 251, 1)"></circle><circle r="5" cx="1572.19" cy="237.47" fill="rgba(251, 251, 251, 1)"></circle><circle r="5" cx="1553.88" cy="487.68" fill="rgba(251, 251, 251, 1)"></circle><circle r="5" cx="1548.75" cy="664.5" fill="rgba(251, 251, 251, 1)"></circle><path d="M75.75 701.24L75.75 701.24" stroke="hsl(0, 0%, 100%)" stroke-width="1.5"></path><path d="M75.75 701.24L195.28 676.04" stroke="hsl(0, 0%, 100%)" stroke-width="1.5"></path><path d="M75.75 701.24L-75.32 684.88" stroke="hsl(0, 0%, 100%)" stroke-width="1.5"></path><path d="M75.75 701.24L-40.14 533.47" stroke="hsl(0, 0%, 100%)" stroke-width="1.5"></path><path d="M218.93 493.5L218.93 493.5" stroke="hsl(0, 0%, 100%)" stroke-width="1.5"></path><path d="M218.93 493.5L350.97 495.42" stroke="hsl(0, 0%, 100%)" stroke-width="1.5"></path><path d="M218.93 493.5L84.59 497.29" stroke="hsl(0, 0%, 100%)" stroke-width="1.5"></path><path d="M218.93 493.5L195.28 676.04" stroke="hsl(0, 0%, 100%)" stroke-width="1.5"></path><path d="M218.93 493.5L377.24 687.55" stroke="hsl(0, 0%, 100%)" stroke-width="1.5"></path><path d="M218.93 493.5L75.75 701.24" stroke="hsl(0, 0%, 100%)" stroke-width="1.5"></path><path d="M218.93 493.5L-40.14 533.47" stroke="hsl(0, 0%, 100%)" stroke-width="1.5"></path><path d="M937.69 402.97L937.69 402.97" stroke="hsl(0, 0%, 100%)" stroke-width="1.5"></path><path d="M937.69 402.97L938.67 555.72" stroke="hsl(0, 0%, 100%)" stroke-width="1.5"></path><path d="M937.69 402.97L1107.68 395.45" stroke="hsl(0, 0%, 100%)" stroke-width="1.5"></path><path d="M937.69 402.97L816.59 524.65" stroke="hsl(0, 0%, 100%)" stroke-width="1.5"></path><path d="M937.69 402.97L1121.09 548.99" stroke="hsl(0, 0%, 100%)" stroke-width="1.5"></path><path d="M937.69 402.97L947.2 650.34" stroke="hsl(0, 0%, 100%)" stroke-width="1.5"></path><path d="M937.69 402.97L1108.79 220.66" stroke="hsl(0, 0%, 100%)" stroke-width="1.5"></path><path d="M1108.79 220.66L1108.79 220.66" stroke="hsl(0, 0%, 100%)" stroke-width="1.5"></path><path d="M1108.79 220.66L1107.68 395.45" stroke="hsl(0, 0%, 100%)" stroke-width="1.5"></path><path d="M1108.79 220.66L1290.68 85.73" stroke="hsl(0, 0%, 100%)" stroke-width="1.5"></path><path d="M1108.79 220.66L1284.73 393.66" stroke="hsl(0, 0%, 100%)" stroke-width="1.5"></path><path d="M1107.68 395.45L1107.68 395.45" stroke="hsl(0, 0%, 100%)" stroke-width="1.5"></path><path d="M1107.68 395.45L1121.09 548.99" stroke="hsl(0, 0%, 100%)" stroke-width="1.5"></path><path d="M1107.68 395.45L1284.73 393.66" stroke="hsl(0, 0%, 100%)" stroke-width="1.5"></path><path d="M1290.68 85.73L1290.68 85.73" stroke="hsl(0, 0%, 100%)" stroke-width="1.5"></path><path d="M1290.68 85.73L1446.42 61.6" stroke="hsl(0, 0%, 100%)" stroke-width="1.5"></path><path d="M1290.68 85.73L1408.73 203.45" stroke="hsl(0, 0%, 100%)" stroke-width="1.5"></path><path d="M1290.68 85.73L1308.05 -94.38" stroke="hsl(0, 0%, 100%)" stroke-width="1.5"></path><path d="M1290.68 85.73L1426.71 -64.45" stroke="hsl(0, 0%, 100%)" stroke-width="1.5"></path><path d="M1290.68 85.73L1413.12 346.45" stroke="hsl(0, 0%, 100%)" stroke-width="1.5"></path><path d="M1446.42 61.6L1446.42 61.6" stroke="hsl(0, 0%, 100%)" stroke-width="1.5"></path><path d="M1446.42 61.6L1426.71 -64.45" stroke="hsl(0, 0%, 100%)" stroke-width="1.5"></path><path d="M1413.12 346.45L1413.12 346.45" stroke="hsl(0, 0%, 100%)" stroke-width="1.5"></path><path d="M1413.12 346.45L1284.73 393.66" stroke="hsl(0, 0%, 100%)" stroke-width="1.5"></path><path d="M1413.12 346.45L1403.92 488.54" stroke="hsl(0, 0%, 100%)" stroke-width="1.5"></path><path d="M1413.12 346.45L1408.73 203.45" stroke="hsl(0, 0%, 100%)" stroke-width="1.5"></path><path d="M1413.12 346.45L1592.55 346.2" stroke="hsl(0, 0%, 100%)" stroke-width="1.5"></path><path d="M1560.8 554.79L1560.8 554.79" stroke="hsl(0, 0%, 100%)" stroke-width="1.5"></path><path d="M1560.8 554.79L1537.8 700.41" stroke="hsl(0, 0%, 100%)" stroke-width="1.5"></path><path d="M1560.8 554.79L1457.21 671.77" stroke="hsl(0, 0%, 100%)" stroke-width="1.5"></path><path d="M-40.14 533.47L-40.14 533.47" stroke="hsl(0, 0%, 100%)" stroke-width="1.5"></path><path d="M-40.14 533.47L84.59 497.29" stroke="hsl(0, 0%, 100%)" stroke-width="1.5"></path><path d="M-40.14 533.47L-75.32 684.88" stroke="hsl(0, 0%, 100%)" stroke-width="1.5"></path><path d="M-40.14 533.47L195.28 676.04" stroke="hsl(0, 0%, 100%)" stroke-width="1.5"></path><path d="M-40.14 533.47L350.97 495.42" stroke="hsl(0, 0%, 100%)" stroke-width="1.5"></path><path d="M-75.32 684.88L-75.32 684.88" stroke="hsl(0, 0%, 100%)" stroke-width="1.5"></path><path d="M-75.32 684.88L84.59 497.29" stroke="hsl(0, 0%, 100%)" stroke-width="1.5"></path><path d="M-75.32 684.88L195.28 676.04" stroke="hsl(0, 0%, 100%)" stroke-width="1.5"></path><path d="M84.59 497.29L84.59 497.29" stroke="hsl(0, 0%, 100%)" stroke-width="1.5"></path><path d="M84.59 497.29L75.75 701.24" stroke="hsl(0, 0%, 100%)" stroke-width="1.5"></path><path d="M84.59 497.29L195.28 676.04" stroke="hsl(0, 0%, 100%)" stroke-width="1.5"></path><path d="M195.28 676.04L195.28 676.04" stroke="hsl(0, 0%, 100%)" stroke-width="1.5"></path><path d="M195.28 676.04L377.24 687.55" stroke="hsl(0, 0%, 100%)" stroke-width="1.5"></path><path d="M350.97 495.42L350.97 495.42" stroke="hsl(0, 0%, 100%)" stroke-width="1.5"></path><path d="M350.97 495.42L377.24 687.55" stroke="hsl(0, 0%, 100%)" stroke-width="1.5"></path><path d="M377.24 687.55L377.24 687.55" stroke="hsl(0, 0%, 100%)" stroke-width="1.5"></path><path d="M377.24 687.55L550.86 695.09" stroke="hsl(0, 0%, 100%)" stroke-width="1.5"></path><path d="M550.86 695.09L550.86 695.09" stroke="hsl(0, 0%, 100%)" stroke-width="1.5"></path><path d="M550.86 695.09L683.77 670.71" stroke="hsl(0, 0%, 100%)" stroke-width="1.5"></path><path d="M550.86 695.09L668.22 509.7" stroke="hsl(0, 0%, 100%)" stroke-width="1.5"></path><path d="M668.22 509.7L668.22 509.7" stroke="hsl(0, 0%, 100%)" stroke-width="1.5"></path><path d="M668.22 509.7L816.59 524.65" stroke="hsl(0, 0%, 100%)" stroke-width="1.5"></path><path d="M668.22 509.7L683.77 670.71" stroke="hsl(0, 0%, 100%)" stroke-width="1.5"></path><path d="M668.22 509.7L844.06 684.93" stroke="hsl(0, 0%, 100%)" stroke-width="1.5"></path><path d="M668.22 509.7L938.67 555.72" stroke="hsl(0, 0%, 100%)" stroke-width="1.5"></path><path d="M683.77 670.71L683.77 670.71" stroke="hsl(0, 0%, 100%)" stroke-width="1.5"></path><path d="M683.77 670.71L844.06 684.93" stroke="hsl(0, 0%, 100%)" stroke-width="1.5"></path><path d="M683.77 670.71L816.59 524.65" stroke="hsl(0, 0%, 100%)" stroke-width="1.5"></path><path d="M683.77 670.71L947.2 650.34" stroke="hsl(0, 0%, 100%)" stroke-width="1.5"></path><path d="M816.59 524.65L816.59 524.65" stroke="hsl(0, 0%, 100%)" stroke-width="1.5"></path><path d="M816.59 524.65L938.67 555.72" stroke="hsl(0, 0%, 100%)" stroke-width="1.5"></path><path d="M844.06 684.93L844.06 684.93" stroke="hsl(0, 0%, 100%)" stroke-width="1.5"></path><path d="M844.06 684.93L947.2 650.34" stroke="hsl(0, 0%, 100%)" stroke-width="1.5"></path><path d="M844.06 684.93L938.67 555.72" stroke="hsl(0, 0%, 100%)" stroke-width="1.5"></path><path d="M844.06 684.93L816.59 524.65" stroke="hsl(0, 0%, 100%)" stroke-width="1.5"></path><path d="M938.67 555.72L938.67 555.72" stroke="hsl(0, 0%, 100%)" stroke-width="1.5"></path><path d="M938.67 555.72L947.2 650.34" stroke="hsl(0, 0%, 100%)" stroke-width="1.5"></path><path d="M947.2 650.34L947.2 650.34" stroke="hsl(0, 0%, 100%)" stroke-width="1.5"></path><path d="M947.2 650.34L816.59 524.65" stroke="hsl(0, 0%, 100%)" stroke-width="1.5"></path><path d="M947.2 650.34L1121.09 548.99" stroke="hsl(0, 0%, 100%)" stroke-width="1.5"></path><path d="M947.2 650.34L1154.86 670.29" stroke="hsl(0, 0%, 100%)" stroke-width="1.5"></path><path d="M1121.09 548.99L1121.09 548.99" stroke="hsl(0, 0%, 100%)" stroke-width="1.5"></path><path d="M1121.09 548.99L1154.86 670.29" stroke="hsl(0, 0%, 100%)" stroke-width="1.5"></path><path d="M1121.09 548.99L1294.91 553.2" stroke="hsl(0, 0%, 100%)" stroke-width="1.5"></path><path d="M1121.09 548.99L938.67 555.72" stroke="hsl(0, 0%, 100%)" stroke-width="1.5"></path><path d="M1121.09 548.99L1307.28 639.98" stroke="hsl(0, 0%, 100%)" stroke-width="1.5"></path><path d="M1154.86 670.29L1154.86 670.29" stroke="hsl(0, 0%, 100%)" stroke-width="1.5"></path><path d="M1154.86 670.29L1307.28 639.98" stroke="hsl(0, 0%, 100%)" stroke-width="1.5"></path><path d="M1154.86 670.29L1294.91 553.2" stroke="hsl(0, 0%, 100%)" stroke-width="1.5"></path><path d="M1154.86 670.29L938.67 555.72" stroke="hsl(0, 0%, 100%)" stroke-width="1.5"></path><path d="M1308.05 -94.38L1308.05 -94.38" stroke="hsl(0, 0%, 100%)" stroke-width="1.5"></path><path d="M1308.05 -94.38L1426.71 -64.45" stroke="hsl(0, 0%, 100%)" stroke-width="1.5"></path><path d="M1308.05 -94.38L1446.42 61.6" stroke="hsl(0, 0%, 100%)" stroke-width="1.5"></path><path d="M1308.05 -94.38L1571.52 -80.55" stroke="hsl(0, 0%, 100%)" stroke-width="1.5"></path><path d="M1284.73 393.66L1284.73 393.66" stroke="hsl(0, 0%, 100%)" stroke-width="1.5"></path><path d="M1294.91 553.2L1294.91 553.2" stroke="hsl(0, 0%, 100%)" stroke-width="1.5"></path><path d="M1294.91 553.2L1307.28 639.98" stroke="hsl(0, 0%, 100%)" stroke-width="1.5"></path><path d="M1294.91 553.2L1403.92 488.54" stroke="hsl(0, 0%, 100%)" stroke-width="1.5"></path><path d="M1307.28 639.98L1307.28 639.98" stroke="hsl(0, 0%, 100%)" stroke-width="1.5"></path><path d="M1307.28 639.98L1457.21 671.77" stroke="hsl(0, 0%, 100%)" stroke-width="1.5"></path><path d="M1426.71 -64.45L1426.71 -64.45" stroke="hsl(0, 0%, 100%)" stroke-width="1.5"></path><path d="M1426.71 -64.45L1571.52 -80.55" stroke="hsl(0, 0%, 100%)" stroke-width="1.5"></path><path d="M1426.71 -64.45L1595.89 106.19" stroke="hsl(0, 0%, 100%)" stroke-width="1.5"></path><path d="M1426.71 -64.45L1408.73 203.45" stroke="hsl(0, 0%, 100%)" stroke-width="1.5"></path><path d="M1408.73 203.45L1408.73 203.45" stroke="hsl(0, 0%, 100%)" stroke-width="1.5"></path><path d="M1403.92 488.54L1403.92 488.54" stroke="hsl(0, 0%, 100%)" stroke-width="1.5"></path><path d="M1403.92 488.54L1284.73 393.66" stroke="hsl(0, 0%, 100%)" stroke-width="1.5"></path><path d="M1403.92 488.54L1560.8 554.79" stroke="hsl(0, 0%, 100%)" stroke-width="1.5"></path><path d="M1457.21 671.77L1457.21 671.77" stroke="hsl(0, 0%, 100%)" stroke-width="1.5"></path><path d="M1457.21 671.77L1537.8 700.41" stroke="hsl(0, 0%, 100%)" stroke-width="1.5"></path><path d="M1571.52 -80.55L1571.52 -80.55" stroke="hsl(0, 0%, 100%)" stroke-width="1.5"></path><path d="M1571.52 -80.55L1595.89 106.19" stroke="hsl(0, 0%, 100%)" stroke-width="1.5"></path><path d="M1595.89 106.19L1595.89 106.19" stroke="hsl(0, 0%, 100%)" stroke-width="1.5"></path><path d="M1595.89 106.19L1602.3 216.88" stroke="hsl(0, 0%, 100%)" stroke-width="1.5"></path><path d="M1595.89 106.19L1446.42 61.6" stroke="hsl(0, 0%, 100%)" stroke-width="1.5"></path><path d="M1602.3 216.88L1602.3 216.88" stroke="hsl(0, 0%, 100%)" stroke-width="1.5"></path><path d="M1602.3 216.88L1592.55 346.2" stroke="hsl(0, 0%, 100%)" stroke-width="1.5"></path><path d="M1602.3 216.88L1408.73 203.45" stroke="hsl(0, 0%, 100%)" stroke-width="1.5"></path><path d="M1602.3 216.88L1446.42 61.6" stroke="hsl(0, 0%, 100%)" stroke-width="1.5"></path><path d="M1592.55 346.2L1592.55 346.2" stroke="hsl(0, 0%, 100%)" stroke-width="1.5"></path><path d="M1592.55 346.2L1560.8 554.79" stroke="hsl(0, 0%, 100%)" stroke-width="1.5"></path><path d="M1592.55 346.2L1408.73 203.45" stroke="hsl(0, 0%, 100%)" stroke-width="1.5"></path><path d="M1592.55 346.2L1403.92 488.54" stroke="hsl(0, 0%, 100%)" stroke-width="1.5"></path><path d="M1592.55 346.2L1595.89 106.19" stroke="hsl(0, 0%, 100%)" stroke-width="1.5"></path><path d="M1537.8 700.41L1537.8 700.41" stroke="hsl(0, 0%, 100%)" stroke-width="1.5"></path><path d="M1537.8 700.41L1307.28 639.98" stroke="hsl(0, 0%, 100%)" stroke-width="1.5"></path><path d="M1537.8 700.41L1403.92 488.54" stroke="hsl(0, 0%, 100%)" stroke-width="1.5"></path><circle r="25" cx="75.75" cy="701.24" fill="url(#SvgjsRadialGradient1878)"></circle><circle r="25" cx="218.93" cy="493.5" fill="url(#SvgjsRadialGradient1878)"></circle><circle r="25" cx="937.69" cy="402.97" fill="url(#SvgjsRadialGradient1878)"></circle><circle r="25" cx="1108.79" cy="220.66" fill="url(#SvgjsRadialGradient1878)"></circle><circle r="25" cx="1107.68" cy="395.45" fill="url(#SvgjsRadialGradient1878)"></circle><circle r="25" cx="1290.68" cy="85.73" fill="url(#SvgjsRadialGradient1878)"></circle><circle r="25" cx="1446.42" cy="61.6" fill="url(#SvgjsRadialGradient1878)"></circle><circle r="25" cx="1413.12" cy="346.45" fill="url(#SvgjsRadialGradient1878)"></circle><circle r="25" cx="1560.8" cy="554.79" fill="url(#SvgjsRadialGradient1878)"></circle><circle r="5" cx="-40.14" cy="533.47" fill="#ffffff"></circle><circle r="5" cx="-75.32" cy="684.88" fill="#ffffff"></circle><circle r="5" cx="84.59" cy="497.29" fill="#ffffff"></circle><circle r="5" cx="195.28" cy="676.04" fill="#ffffff"></circle><circle r="5" cx="350.97" cy="495.42" fill="#ffffff"></circle><circle r="5" cx="377.24" cy="687.55" fill="#ffffff"></circle><circle r="5" cx="550.86" cy="695.09" fill="#ffffff"></circle><circle r="5" cx="668.22" cy="509.7" fill="#ffffff"></circle><circle r="5" cx="683.77" cy="670.71" fill="#ffffff"></circle><circle r="5" cx="816.59" cy="524.65" fill="#ffffff"></circle><circle r="5" cx="844.06" cy="684.93" fill="#ffffff"></circle><circle r="5" cx="938.67" cy="555.72" fill="#ffffff"></circle><circle r="5" cx="947.2" cy="650.34" fill="#ffffff"></circle><circle r="5" cx="1121.09" cy="548.99" fill="#ffffff"></circle><circle r="5" cx="1154.86" cy="670.29" fill="#ffffff"></circle><circle r="5" cx="1308.05" cy="-94.38" fill="#ffffff"></circle><circle r="5" cx="1284.73" cy="393.66" fill="#ffffff"></circle><circle r="5" cx="1294.91" cy="553.2" fill="#ffffff"></circle><circle r="5" cx="1307.28" cy="639.98" fill="#ffffff"></circle><circle r="5" cx="1426.71" cy="-64.45" fill="#ffffff"></circle><circle r="5" cx="1408.73" cy="203.45" fill="#ffffff"></circle><circle r="5" cx="1403.92" cy="488.54" fill="#ffffff"></circle><circle r="5" cx="1457.21" cy="671.77" fill="#ffffff"></circle><circle r="5" cx="1571.52" cy="-80.55" fill="#ffffff"></circle><circle r="5" cx="1595.89" cy="106.19" fill="#ffffff"></circle><circle r="5" cx="1602.3" cy="216.88" fill="#ffffff"></circle><circle r="5" cx="1592.55" cy="346.2" fill="#ffffff"></circle><circle r="5" cx="1537.8" cy="700.41" fill="#ffffff"></circle></g><defs><mask id="SvgjsMask1876"><rect width="1440" height="560" fill="#ffffff"></rect></mask><linearGradient x1="15.28%" y1="-39.29%" x2="84.72%" y2="139.29%" gradientUnits="userSpaceOnUse" id="SvgjsLinearGradient1877"><stop stop-color="#0e2a47" offset="0"></stop><stop stop-color="rgba(12, 245, 255, 1)" offset="1"></stop></linearGradient><radialGradient id="SvgjsRadialGradient1878"><stop stop-color="#ffffff" offset="0.1"></stop><stop stop-color="rgba(255, 255, 255, 1)" offset="0.2"></stop><stop stop-color="rgba(255, 255, 255, 0)" offset="1"></stop></radialGradient></defs></svg>